<svg width="100" height="100" viewBox="0 0 100 100" fill="none" xmlns="http://www.w3.org/2000/svg">
<path d="M100 0H0V100H100V0Z" fill="#E5E5E5"/>
<path d="M100 0H0V100H100V0Z" fill="white"/>
<path d="M100 0H0V100H100V0Z" fill="white"/>
<path d="M79.9242 9H28.0758C26.3771 9 25 10.416 25 12.1627V80.8373C25 82.584 26.3771 84 28.0758 84H79.9242C81.6229 84 83 82.584 83 80.8373V12.1627C83 10.416 81.6229 9 79.9242 9Z" fill="white" stroke="black" stroke-width="3"/>
<path d="M71.9242 17H20.0758C18.3771 17 17 18.416 17 20.1627V88.8373C17 90.584 18.3771 92 20.0758 92H71.9242C73.6229 92 75 90.584 75 88.8373V20.1627C75 18.416 73.6229 17 71.9242 17Z" fill="white" stroke="black" stroke-width="3"/>
</svg>
